<svg width="204" height="204" viewBox="0 0 204 204" fill="none" xmlns="http://www.w3.org/2000/svg">
<circle cx="102" cy="102" r="70.5" transform="rotate(21.5628 102 102)" stroke="#FF671F" stroke-width="15"/>
<path d="M88.0204 117.861L101.553 123.209L96.3667 136.332L82.8342 130.985L88.0204 117.861ZM84.3661 78.6151C88.139 70.1306 93.5679 65.2056 100.653 63.8402C105.134 62.9511 109.979 63.5354 115.186 65.5931C122.028 68.2969 127.058 72.1749 130.277 77.227C133.526 82.2911 133.882 88.0322 131.346 94.4503C129.791 98.3859 127.497 101.312 124.464 103.229C122.668 104.409 119.632 105.625 115.358 106.876L111.147 108.099C108.852 108.767 107.059 109.896 105.766 111.485C104.948 112.492 104.045 114.201 103.058 116.611L90.7968 111.765C93.0003 106.721 94.8785 103.385 96.4312 101.759C97.996 100.102 100.916 98.6482 105.19 97.3973L109.528 96.1189C110.941 95.7322 112.172 95.186 113.221 94.4805C115.09 93.2939 116.419 91.7016 117.208 89.7036C118.118 87.4027 118.262 85.0447 117.641 82.6293C117.063 80.1957 114.988 78.273 111.415 76.8613C107.904 75.4735 104.945 75.6521 102.541 77.3969C100.166 79.1538 98.4828 81.2886 97.4899 83.8013L84.3661 78.6151Z" fill="#FF671F"/>
</svg>
